<svg xmlns="http://www.w3.org/2000/svg" version="1.1" xmlns:xlink="http://www.w3.org/1999/xlink" xmlns:svgjs="http://svgjs.dev/svgjs" width="100%" height="100%" viewBox="0 0 1000 600"><rect width="1000" height="600" x="0" y="0" fill="#000000"/><g><circle r="166.66666666666666" cx="389.11681620279944" cy="411.3390546110073" fill="White" transform="matrix(0.561923534499032,0,0,0.561923534499032,0,68.85888167903701)"/><path d="M376.04090632801444 483.2813967411819Q369.60239126308966 483.2813967411819 366.5695772170633 479.97513224838264Q363.51190403951216 476.66886775558345 361.3740187283788 469.9569022438858Q359.2112742857207 463.2449367321882 352.9467731414696 433.8863024013922L352.9467731414696 433.8863024013922Q348.8450164398766 437.4660173409643 339.5228421180743 437.8140451823116L339.5228421180743 437.8140451823116L308.92125121103805 438.90784696940307Q298.0080924716482 465.5568359639951 292.8125339829637 486.339069918733L292.8125339829637 486.339069918733Q275.63487409932276 480.2485826951555 275.63487409932276 472.54225192246565L275.63487409932276 472.54225192246565Q275.63487409932276 469.13655090356724 286.02599107669164 447.13621950411385Q296.3922489225358 425.11102897313566 309.5427294991582 397.09478774467925Q322.7180692073054 369.10340564774765 327.3667268024442 356.3755303070469L327.3667268024442 356.3755303070469L330.57355476914415 347.6251160103152Q329.1565842722302 345.1143437263098 323.61299794219843 338.4769556091866L323.61299794219843 338.4769556091866Q330.0515130071232 336.33907029805323 334.7996071283612 336.33907029805323Q339.5228421180743 336.33907029805323 342.65509269019987 337.0599851122726Q345.7873432623254 337.780899926492 348.22353815175643 339.47132087017883Q350.6348739096626 341.1617418138656 352.49930877402306 342.95159928365166Q354.38860276990835 344.74145675343766 356.00444631902076 348.24659429843535Q357.6202898681331 351.7268727119082 358.6892325236998 354.5110954426865Q359.75817517926646 357.27045904193994 361.10056828160594 362.29200360995077Q362.4429613839455 367.3135481779616 363.2384535927393 370.96784051210807Q364.0588049330579 374.6469919777794 365.40119803539744 381.18494356880336Q366.7435911377369 387.69803602830257 368.1605616346509 393.78852325188006Q369.60239126308966 399.8790104754575 373.1821062026617 416.9820929645241Q376.76182114223377 434.0603163220659 378.8251290587927 442.56213930354954Q380.88843697535157 451.0639622850332 384.71674323017174 461.6290931830758Q388.56990861651667 472.19422408111836 392.8705383703081 478.28471130469586L392.8705383703081 478.28471130469586Q382.4794213929392 483.2813967411819 376.04090632801444 483.2813967411819ZM338.82678643537974 371.4153048795546L338.82678643537974 371.4153048795546Q336.31601415137436 377.1577642617848 327.81419116989065 395.85183116843893Q319.312368188407 414.5458980750931 314.66371059326826 425.6579298666814L314.66371059326826 425.6579298666814L351.35578872388203 425.6579298666814Q342.92854313697273 387.001980345608 338.82678643537974 371.4153048795546ZM398.2401107796662 351.3788448705609L398.2401107796662 351.3788448705609Q398.5881386210135 344.39342891209037 399.681940408105 340.63970005184467L399.681940408105 340.63970005184467Q418.99748560287924 343.8465280185447 446.01936157034345 343.8465280185447Q473.0660966693325 343.8465280185447 502.59874492080206 337.4080129536199L502.59874492080206 337.4080129536199Q499.5410717432509 360.1541182988174 479.5046117342572 362.29200360995077L479.5046117342572 362.29200360995077Q473.2401105900061 363.1869323448438 460.1642074079581 364.08186107973677L460.1642074079581 364.08186107973677Q459.81617956661086 369.27741956842124 454.2725932365791 409.44977611250783Q448.70414777502253 449.64699178811924 448.70414777502253 464.86078028130055Q448.70414777502253 480.07456877448186 451.2149200590279 485.9661829458609L451.2149200590279 485.9661829458609Q436.0011315658466 482.03844016494156 430.4575452358149 475.50048857391755Q424.91395890578315 468.96253698289354 424.91395890578315 459.292334819744Q424.91395890578315 449.64699178811924 429.46317997482265 417.3301208058714Q434.0372601753869 385.0132498236235 434.93218891027993 365.3248176559771L434.93218891027993 365.3248176559771Q420.439315231318 366.04573247019647 406.46848331437707 366.04573247019647L406.46848331437707 366.04573247019647Q398.2401107796662 366.04573247019647 398.2401107796662 351.3788448705609Z " fill="#000000" transform="matrix(0.561923534499032,0,0,0.561923534499032,0,68.85888167903701)"/><path d="M639.1168076688327 372.09243958596215L639.1168076688327 372.09243958596215Q639.411420468491 366.17913982139453 640.3373464102738 363.00153033936704L640.3373464102738 363.00153033936704Q656.6883567913026 365.7161768505031 679.5629363076195 365.7161768505031Q702.4585595953406 365.7161768505031 727.4585600234772 360.26584005682685L727.4585600234772 360.26584005682685Q724.870176140766 379.52089089162905 707.9088963890168 381.3306552323864L707.9088963890168 381.3306552323864Q702.6058659951697 382.08823100293597 691.5368422365839 382.8458067734856L691.5368422365839 382.8458067734856Q691.2422294369258 387.2439549969541 686.5494684137991 421.2506895860692Q681.8356636192682 455.2784679465885 681.8356636192682 468.1572560459316Q681.8356636192682 481.03604414527473 683.9610845310879 486.02341796805956L683.9610845310879 486.02341796805956Q671.0822964317449 482.698502086203 666.3895354086183 477.1639902069101Q661.6967743854915 471.6294783276172 661.6967743854915 463.4434512514008Q661.6967743854915 455.2784679465885 665.547784552452 427.92156512118646Q669.4198384908166 400.56466229578444 670.1774142613662 383.89799534369337L670.1774142613662 383.89799534369337Q657.9088955327436 384.5082647144139 646.0822960036082 384.5082647144139L646.0822960036082 384.5082647144139Q639.1168076688327 384.5082647144139 639.1168076688327 372.09243958596215ZM749.8701765689027 434.5082655706871L749.8701765689027 434.5082655706871Q754.8785941630916 417.3996794191088 765.484654950786 405.65725497559004Q776.0907157384803 393.91483053207133 785.2447562992879 393.91483053207133Q794.4198406314996 393.91483053207133 798.2918945698643 399.42829863996Q802.1429047368248 404.9628105192529 802.1429047368248 414.4325076511228Q802.1429047368248 423.9022047829928 799.196776740243 441.03183470597526Q796.229604972257 458.14042085755364 796.229604972257 465.9476600484953Q796.229604972257 473.75489923943695 798.2077194842477 477.31129660673923Q800.1858339962383 480.86769397404146 804.878595019365 483.4560778567526L804.878595019365 483.4560778567526Q802.9004805073743 483.60338425658165 799.2599080544554 483.60338425658165L799.2599080544554 483.60338425658165Q786.5494701263456 483.60338425658165 781.1622646468818 479.6681990040046Q775.775059167418 475.73301375142756 775.775059167418 465.8845287342828L775.775059167418 465.8845287342828Q775.775059167418 460.2658417693733 778.8053622496163 443.977962702557Q781.8356653318148 427.69008363574073 781.8356653318148 419.67240673075753L781.8356653318148 419.67240673075753Q781.8356653318148 409.65557154237956 775.775059167418 409.65557154237956L775.775059167418 409.65557154237956Q772.1555304859032 409.65557154237956 767.7573822624348 413.75910696618985Q763.3592340389663 417.84159861859604 759.3398737007726 424.8912620389881Q755.3205133625789 431.94092545938014 752.6058668514429 442.9889054465617Q749.8701765689027 454.0579292051475 749.8701765689027 465.04277787811657Q749.8701765689027 476.02762655108575 750.7750587392813 481.3306569449329L750.7750587392813 481.3306569449329Q745.9349913163256 481.62526974459104 744.4198397752265 481.62526974459104L744.4198397752265 481.62526974459104Q735.7918934995228 481.62526974459104 732.0040146467747 478.67914174800933Q728.2161357940267 475.73301375142756 728.2161357940267 469.20944461613936Q728.2161357940267 462.6858754808512 730.7834759053337 444.3567505878318L730.7834759053337 444.3567505878318Q738.9695029815501 388.00153076750365 738.9695029815501 358.75068851572763L738.9695029815501 358.75068851572763Q738.9695029815501 345.5772876167263 737.1386948693887 341.0318329934288L737.1386948693887 341.0318329934288Q748.5023314276326 344.06213607562717 752.6689981656554 350.1858735542364Q756.8356649036781 356.3306548042498 756.8356649036781 367.5469849626646L756.8356649036781 367.5469849626646Q756.8356649036781 375.1227426681605 753.8895369070964 399.36516732574756Q750.9434089105146 423.6075919833346 749.8701765689027 434.5082655706871ZM856.5410538165664 444.0621377881737L856.5410538165664 444.0621377881737Q849.2599089107287 444.0621377881737 842.2944205759533 442.39967984724535L842.2944205759533 442.39967984724535Q842.1471141761241 443.91483138834457 842.1471141761241 447.09244087037206L842.1471141761241 447.09244087037206Q842.1471141761241 459.6555723986528 846.8398751992507 466.03183513411193Q851.5326362223774 472.38705409816686 858.0562053576656 472.38705409816686Q864.5797744929538 472.38705409816686 870.4720304861173 468.4518688455898Q876.385330250685 464.5166835930127 880.7834784741534 457.55119525823727L880.7834784741534 457.55119525823727Q886.2338152678298 458.75069022827415 886.2338152678298 463.1488384517426L886.2338152678298 463.1488384517426Q872.9131079689994 483.60338425658165 851.8482927934398 483.60338425658165L851.8482927934398 483.60338425658165Q839.1168110939258 483.60338425658165 829.5629388764393 473.83907432505356Q820.0301104303568 464.0537206221213 820.0301104303568 446.62947789948066L820.0301104303568 446.62947789948066Q820.0301104303568 433.6033834003084 825.0174842531417 421.8609589567897Q830.0259018473306 410.11853451327096 840.9265754346832 402.01668252267115Q851.8482927934398 393.91483053207133 865.1058687780577 393.91483053207133Q878.3634447626756 393.91483053207133 884.5713573269014 399.9754366964681Q890.7792698911273 406.0360428608648 890.7792698911273 415.8845278780096L890.7792698911273 415.8845278780096Q890.7792698911273 430.11011734721865 880.86765355977 437.09664945339824Q870.9349934570088 444.0621377881737 856.5410538165664 444.0621377881737ZM862.8962727806214 403.30035257832463L862.8962727806214 403.30035257832463Q855.1732086752963 403.30035257832463 849.8701782814492 412.8542247958112Q844.567147887602 422.38705324189357 842.9046899466738 436.02341711178633L842.9046899466738 436.02341711178633L845.1774172583225 436.02341711178633Q858.3508181573238 436.02341711178633 864.6429058071662 429.20523517683995Q870.9349934570088 422.38705324189357 870.9349934570088 412.8542247958112L870.9349934570088 412.8542247958112Q870.9349934570088 408.89799577183 868.8937476308057 406.09917417507734Q866.8525018046026 403.30035257832463 862.8962727806214 403.30035257832463ZM979.2683286456007 483.75069065641077Q973.8179918519246 483.75069065641077 971.2296079692134 480.95186905965807Q968.6622678579064 478.1530474629054 966.8525035171491 472.4712291837835Q965.0216954049876 466.7894109046615 959.7186650111404 441.93671687635396L959.7186650111404 441.93671687635396Q956.2464427294548 444.9670199585523 948.3550284528965 445.2616327582105L948.3550284528965 445.2616327582105L922.4501458543813 446.18755869999336Q913.2119302079569 468.74648164524797 908.8137819844884 486.33907453912184L908.8137819844884 486.33907453912184Q894.2725359442171 481.18335054510385 894.2725359442171 474.65978140981565L894.2725359442171 474.65978140981565Q894.2725359442171 471.7767847274463 903.0477886197499 453.1530470347688Q911.8440850666868 434.5082655706871 922.9762401394852 410.79193519820393Q934.1083952122832 387.09664859712495 938.0646242362645 376.3222376381974L938.0646242362645 376.3222376381974L940.7792707474006 368.9148301039347Q939.5797757773637 366.789409192115 934.8659709828329 361.1707222272055L934.8659709828329 361.1707222272055Q940.3373515479133 359.36095788644815 944.3356681147028 359.36095788644815Q948.3550284528965 359.36095788644815 951.0065436498201 359.97122725716866Q953.6580588467438 360.5814966278891 955.6993046729468 362.01247308337173Q957.7615942705539 363.4434495388543 959.3398771258657 364.9586010799535Q960.9392037525814 366.47375262105265 962.3070488938516 369.44092438903857Q963.6538502637175 372.38705238562034 964.5797762055003 374.74395478288574Q965.484658375879 377.079813408747 966.6210220317033 381.3306552323864Q967.7573856875277 385.5814970560258 968.4307863724608 388.6749314524366Q969.125230828798 391.7894096202516 970.2615944846224 397.3239214995445Q971.3979581404467 402.83738960743324 972.5974531104836 407.9931136014513Q973.8179918519246 413.1488375954694 976.8482949341229 427.6269523215283Q979.8785980163212 442.0840232761831 981.6252310428662 449.2809930964042Q983.350820298007 456.47796291662536 986.612604865651 465.4215657633914Q989.8743894332952 474.3651686101574 993.5149618862139 479.5208926041755L993.5149618862139 479.5208926041755Q984.7186654392771 483.75069065641077 979.2683286456007 483.75069065641077ZM947.744759082176 389.0537193377114L947.744759082176 389.0537193377114Q945.6403819417604 393.91483053207133 938.4434121215394 409.73974662799617Q931.2464423013181 425.56466272392106 927.2902132773369 434.9712285415785L927.2902132773369 434.9712285415785L958.3508198698702 434.9712285415785Q951.2380251352657 402.2481640081169 947.744759082176 389.0537193377114ZM1077.9004852168773 481.3306569449329L1077.9004852168773 481.3306569449329Q1074.112606364129 483.4560778567526 1068.5780944848364 483.4560778567526Q1063.0646263769477 483.4560778567526 1062.454357006227 481.18335054510385L1062.454357006227 481.18335054510385Q1059.718666723687 468.74648164524797 1057.5932458118673 453.59496623425605Q1055.4888686714517 438.4434508232642 1054.8785993007311 434.360959170858L1054.8785993007311 434.360959170858Q1038.9695081191899 467.2313301041488 1033.5191713255135 481.3306569449329L1033.5191713255135 481.3306569449329Q1029.8785988725945 483.4560778567526 1024.259911907685 483.4560778567526Q1018.6622687141797 483.4560778567526 1018.0519993434592 481.18335054510385L1018.0519993434592 481.18335054510385Q1015.7792720318104 471.48217192778816 1013.2119319205034 452.1639897787735Q1010.6235480377924 432.84580762975884 1007.7615951268273 418.3676929036999Q1004.8785984444579 403.91062194904515 1000.4804502209894 396.48217064337825L1000.4804502209894 396.48217064337825Q1008.813783697035 392.54698539080124 1013.4434134059492 392.54698539080124Q1018.0519993434592 392.54698539080124 1020.2615953408955 394.1252682461129Q1022.4501475669277 395.7245948728287 1023.8811240224103 399.28099224013096Q1025.3331442492968 402.83738960743324 1026.2380264196756 406.9409250312435Q1027.1429085900545 411.02341668364966 1027.7531779607748 417.46281073332125Q1028.3634473314953 423.9022047829928 1028.8053665309826 429.8155045475604L1028.8053665309826 429.8155045475604Q1030.488868243315 452.0798146931569 1031.5410568135226 460.41314816920243L1031.5410568135226 460.41314816920243Q1044.8828078837573 428.59496580611943 1050.3331446774337 410.5814974841624L1050.3331446774337 410.5814974841624Q1047.9131109659556 401.7852010372254 1044.8828078837573 396.48217064337825L1044.8828078837573 396.48217064337825Q1053.2161413598028 392.54698539080124 1057.824727297313 392.54698539080124Q1062.454357006227 392.54698539080124 1064.6429092322592 394.1252682461129Q1066.8525052296955 395.7245948728287 1068.2834816851782 399.28099224013096Q1069.7144581406608 402.83738960743324 1070.6403840824437 406.9409250312435Q1071.5452662528223 411.02341668364966 1072.1555356235426 417.46281073332125Q1072.7447612228593 423.9022047829928 1073.2077241937504 429.8155045475604L1073.2077241937504 429.8155045475604Q1074.870182134679 452.0798146931569 1075.9434144762909 460.41314816920243L1075.9434144762909 460.41314816920243Q1098.355031021716 407.6985008017931 1098.8179939926076 390.5688708788106L1098.8179939926076 390.5688708788106Q1110.7918999215722 396.9451336142697 1110.7918999215722 403.53183406377036Q1110.7918999215722 410.11853451327096 1104.8786001570045 423.67072329754706Q1098.9653003924368 437.2439558532273 1090.1690039454998 454.8996800613137Q1081.3937512699672 472.5343604979959 1077.9004852168773 481.3306569449329ZM1194.4198474816858 481.3306569449329L1194.4198474816858 481.3306569449329Q1190.6319686289376 483.4560778567526 1185.0974567496448 483.4560778567526Q1179.562944870352 483.4560778567526 1178.9737192710356 481.18335054510385L1178.9737192710356 481.18335054510385Q1176.2380289884954 468.74648164524797 1174.1126080766758 453.59496623425605Q1171.987187164856 438.4434508232642 1171.3979615655396 434.360959170858L1171.3979615655396 434.360959170858Q1155.4888703839981 467.2313301041488 1150.0174898189177 481.3306569449329L1150.0174898189177 481.3306569449329Q1146.397961137403 483.4560778567526 1140.7792741724936 483.4560778567526Q1135.1816309789883 483.4560778567526 1134.5713616082676 481.18335054510385L1134.5713616082676 481.18335054510385Q1132.2986342966187 471.48217192778816 1129.731294185312 452.1639897787735Q1127.1429103026007 432.84580762975884 1124.2599136202316 418.3676929036999Q1121.3979607092665 403.91062194904515 1116.999812485798 396.48217064337825L1116.999812485798 396.48217064337825Q1125.3331459618435 392.54698539080124 1129.9417318993535 392.54698539080124Q1134.5713616082676 392.54698539080124 1136.7599138342998 394.1252682461129Q1138.969509831736 395.7245948728287 1140.4004862872189 399.28099224013096Q1141.8525065141057 402.83738960743324 1142.7573886844843 406.9409250312435Q1143.662270854863 411.02341668364966 1144.2725402255833 417.46281073332125Q1144.882809596304 423.9022047829928 1145.324728795791 429.8155045475604L1145.324728795791 429.8155045475604Q1146.9871867367194 452.0798146931569 1148.0604190783315 460.41314816920243L1148.0604190783315 460.41314816920243Q1161.3811263771618 428.59496580611943 1166.8525069422421 410.5814974841624L1166.8525069422421 410.5814974841624Q1164.41142945936 401.7852010372254 1161.3811263771618 396.48217064337825L1161.3811263771618 396.48217064337825Q1169.7144598532072 392.54698539080124 1174.3440895621216 392.54698539080124Q1178.9737192710356 392.54698539080124 1181.1622714970676 394.1252682461129Q1183.3508237231 395.7245948728287 1184.8028439499867 399.28099224013096Q1186.2338204054693 402.83738960743324 1187.138702575848 406.9409250312435Q1188.0646285176308 411.02341668364966 1188.653854116947 417.46281073332125Q1189.2641234876676 423.9022047829928 1189.727086458559 429.8155045475604L1189.727086458559 429.8155045475604Q1191.3895443994872 452.0798146931569 1192.441732969695 460.41314816920243L1192.441732969695 460.41314816920243Q1214.8743932865248 407.6985008017931 1215.337356257416 390.5688708788106L1215.337356257416 390.5688708788106Q1227.2902184149764 396.9451336142697 1227.2902184149764 403.53183406377036Q1227.2902184149764 410.11853451327096 1221.3979624218127 423.67072329754706Q1215.4846626572453 437.2439558532273 1206.6883662103082 454.8996800613137Q1197.9131135347757 472.5343604979959 1194.4198474816858 481.3306569449329ZM1256.246447867094 452.6900840638774L1256.246447867094 452.6900840638774Q1256.246447867094 459.82392256988607 1258.8979630640179 464.285202107567Q1261.5494782609417 468.74648164524797 1266.3895456838973 468.74648164524797L1266.3895456838973 468.74648164524797Q1273.5023404185017 468.74648164524797 1279.9417344681733 460.41314816920243Q1286.381128517845 452.0798146931569 1290.2531824562097 439.05372019398465Q1294.1252363945741 426.0276256948125 1294.1252363945741 414.28520125129376Q1294.1252363945741 402.54277680777506 1293.1993104527915 395.2616319019373L1293.1993104527915 395.2616319019373Q1297.7447650760887 394.9670191022791 1299.5755731882505 394.9670191022791L1299.5755731882505 394.9670191022791Q1307.2986372935752 394.9670191022791 1311.2338225461526 397.8500157846484Q1315.1690077987296 400.73301246701766 1315.1690077987296 408.1404200012804L1315.1690077987296 408.1404200012804Q1315.1690077987296 411.02341668364966 1311.5494791172146 431.56213757410535Q1307.908906664296 452.0798146931569 1307.908906664296 464.4325085073961Q1307.908906664296 476.7852023216353 1312.6016676874224 486.33907453912184L1312.6016676874224 486.33907453912184Q1301.2380311291786 484.3609600271313 1295.9350007353314 477.92156597745975Q1290.6319703414842 471.48217192778816 1290.6319703414842 459.36095959899467L1290.6319703414842 459.36095959899467Q1290.6319703414842 457.23553868717494 1291.2422397122045 451.1749325227782L1291.2422397122045 451.1749325227782Q1287.1387042883944 465.5688721632205 1276.7009936719332 474.3651686101574Q1266.242239284068 483.14042128569025 1256.162272781478 483.14042128569025Q1246.0823062788872 483.14042128569025 1239.958568800278 475.6488386658109Q1233.8137875502648 468.1572560459316 1233.8137875502648 454.3525420048056Q1233.8137875502648 440.56887173508386 1238.738030058837 427.6269523215283Q1243.6622725674092 414.66398913656855 1253.510757584554 405.65725497559004Q1263.359242601699 396.6294770432074 1275.4804549304922 396.6294770432074L1275.4804549304922 396.6294770432074Q1282.445943265268 396.6294770432074 1289.7270881711056 399.9754366964681L1289.7270881711056 399.9754366964681Q1274.4282663602844 405.42577349014437 1265.3373571136894 421.39799598589826Q1256.246447867094 437.3912622530564 1256.246447867094 452.6900840638774ZM1357.1513317500194 432.08823185920926L1357.1513317500194 432.08823185920926Q1362.6016685436957 412.39126182491975 1370.2616013348083 403.0688710928789Q1377.9004903545165 393.74648036083806 1384.4871908040172 393.74648036083806Q1391.094935024922 393.74648036083806 1394.4198509067787 398.67072286941044Q1397.7447667886354 403.5949653779828 1397.7447667886354 411.4022045689245Q1397.7447667886354 419.20944375986613 1393.1361808511251 425.7330128951543Q1388.5065511422113 432.2355382590383 1380.4888742372277 432.2355382590383L1380.4888742372277 432.2355382590383Q1378.363453325408 432.2355382590383 1375.480456643039 431.03604328900144L1375.480456643039 431.03604328900144Q1380.1732176661653 425.1227435244338 1380.1732176661653 416.7894100483883L1380.1732176661653 416.7894100483883Q1380.1732176661653 411.92829885402836 1376.2380324135884 411.92829885402836L1376.2380324135884 411.92829885402836Q1373.3550357312192 411.92829885402836 1370.0301198493626 415.94765919222203Q1366.6841601961019 419.96701953041577 1363.6538571139035 427.01668295080776Q1360.6235540317052 434.06634637119987 1358.5823082055022 445.051195044169Q1356.541062379299 456.0360437171381 1356.541062379299 468.4518688455898L1356.541062379299 468.4518688455898Q1356.541062379299 469.967020386689 1357.2986381498486 481.3306569449329L1357.2986381498486 481.3306569449329Q1352.458570726893 481.62526974459104 1351.0907255856227 481.62526974459104L1351.0907255856227 481.62526974459104Q1342.4417355385149 481.62526974459104 1338.653856685767 478.5949666623927Q1334.8659778330189 475.5646635801943 1334.8659778330189 468.5991752454189L1334.8659778330189 468.5991752454189Q1334.8659778330189 465.5688721632205 1338.0646310864504 445.2616327582105Q1341.2422405684779 424.9754371246047 1341.2422405684779 412.91735611002366Q1341.2422405684779 400.8803188668468 1338.653856685767 390.7161772786397L1338.653856685767 390.7161772786397Q1349.7228804443525 394.2094433317295 1354.121028667821 400.64883738140105Q1358.5191768912896 407.0882314310726 1358.5191768912896 415.65304639256385Q1358.5191768912896 424.2178613540551 1357.1513317500194 432.08823185920926ZM1422.3028480172848 450.73301332329095L1422.3028480172848 450.73301332329095Q1422.3028480172848 468.74648164524797 1433.203521604637 468.74648164524797L1433.203521604637 468.74648164524797Q1438.9695149693757 468.74648164524797 1444.419851763052 462.5385690810221Q1449.870188556728 456.33065651679624 1453.2792795242012 445.871902128931Q1456.6883704916745 435.4131477410658 1459.1925792887691 423.523416897718Q1461.6967880858638 411.6336860543702 1462.8962830559003 398.29193498413565L1462.8962830559003 398.29193498413565Q1465.0217039677204 372.5343587854494 1465.0217039677204 358.07728783079466Q1465.0217039677204 343.59917310473577 1463.822208997683 336.33907197030214L1463.822208997683 336.33907197030214Q1474.7228825850357 338.75910568178 1479.1210308085042 346.6294761869341Q1483.5191790319727 354.5208904634924 1483.5191790319727 366.47375262105265Q1483.5191790319727 378.4476585500171 1478.4265863521669 411.02341668364966Q1473.355037443766 443.59917481728223 1473.355037443766 458.60338382844503Q1473.355037443766 473.60759283960783 1474.7228825850357 484.0663472274731L1474.7228825850357 484.0663472274731Q1463.9695153975126 481.18335054510385 1459.9501550593186 473.6707241538203Q1455.930794721125 466.179141533941 1455.930794721125 454.8155049756971L1455.930794721125 454.8155049756971Q1451.2380336979982 467.84159947486927 1441.8525116517449 475.41735718036523Q1432.4459458340875 482.9931148858612 1422.450154417114 482.9931148858612Q1412.45436300014 482.9931148858612 1406.1622753502975 475.3542258661528Q1399.870187700455 467.69429307504015 1399.870187700455 452.83739046370647L1399.870187700455 452.83739046370647Q1399.870187700455 429.35254157666907 1412.7489757997982 412.4754369105364Q1425.627763899141 395.5772884729996 1443.199313021611 395.5772884729996L1443.199313021611 395.5772884729996Q1448.2077306157998 395.5772884729996 1458.9610978033234 397.99732218447747L1458.9610978033234 397.99732218447747Q1449.57557575707 400.4173558959553 1442.2312995370198 406.4148307461396Q1434.8659795455656 412.39126182491975 1430.7834878931594 420.11432593024483L1430.7834878931594 420.11432593024483Q1422.3028480172848 435.4131477410658 1422.3028480172848 450.73301332329095ZM1530.7834896057057 402.83738960743324Q1526.5326477820663 402.83738960743324 1523.2077319002096 405.65725497559004Q1519.8828160183534 408.4560765723427 1519.8828160183534 413.6118005663608Q1519.8828160183534 418.74648078897474 1523.4392133856554 423.29193541227227Q1526.9956107529579 427.83739003556985 1532.1513347469759 431.246481003043Q1537.3070587409939 434.6555719705162 1542.5259140492244 438.2330131092226Q1547.744769357455 441.7894104765249 1551.7009983814364 447.0082657847554Q1555.6361836340134 452.2481648643901 1556.0781028335005 458.60338382844503L1556.0781028335005 458.60338382844503Q1556.0781028335005 469.50405741579755 1546.6925807872472 476.9325087214644Q1537.3070587409939 484.3609600271313 1523.3550383000388 484.3609600271313Q1509.4240616304878 484.3609600271313 1501.4695160397173 478.76331683362594Q1493.5149704489463 473.14462986871644 1493.5149704489463 465.8845287342828Q1493.5149704489463 458.60338382844503 1497.9762499866274 454.1421042907641Q1502.4585732957125 449.659780981679 1509.1084050594259 449.659780981679L1509.1084050594259 449.659780981679Q1512.6016711125153 449.659780981679 1515.631974194714 450.88031972312L1515.631974194714 450.88031972312Q1510.791906771758 456.0360437171381 1510.791906771758 461.7809933104725Q1510.791906771758 467.5469866752111 1513.9695162537855 471.0192089568967Q1517.147125735813 474.51247500998653 1522.5974625294893 474.51247500998653Q1528.0477993231657 474.51247500998653 1531.7725468617014 471.7136534132339Q1535.4762506288325 468.9148318164812 1535.4762506288325 464.4325085073961Q1535.4762506288325 459.9712289697152 1532.9089105175258 456.47796291662536Q1530.3205266348145 453.0057406349397 1526.4695164678542 450.3542254380161Q1522.5974625294893 447.7027102410925 1518.0520079061916 444.3567505878318Q1513.506553282894 441.03183470597526 1509.6555431159336 437.6227437385021Q1505.7834891775692 434.21365277102893 1503.2161490662625 428.9737536913942Q1500.6277651835512 423.75489838316366 1500.6277651835512 417.54698581893786L1500.6277651835512 417.54698581893786Q1500.6277651835512 406.79361863141446 1509.4871929447004 399.8912616108515Q1518.367664477254 392.9889045902885 1531.6252404618722 392.9889045902885Q1544.8828164464899 392.9889045902885 1551.006553925099 398.1446285843066Q1557.1513351751123 403.30035257832463 1557.1513351751123 410.2027095988876Q1557.1513351751123 417.0840228480464 1552.8373620372604 421.9451340424063Q1548.5023451280044 426.7852014653621 1541.6841631930583 426.7852014653621L1541.6841631930583 426.7852014653621Q1538.3592473112017 426.7852014653621 1534.1084054875623 425.417356324092L1534.1084054875623 425.417356324092Q1537.454365140823 422.5343596417227 1539.2641294815803 418.83065587459134Q1541.094937593742 415.12695210745994 1541.094937593742 411.4863796545411Q1541.094937593742 407.8458072016222 1538.0646345115438 405.3415984045277Q1535.034331429345 402.83738960743324 1530.7834896057057 402.83738960743324Z " fill="White" transform="matrix(0.561923534499032,0,0,0.561923534499032,0,68.85888167903701)"/></g></svg>